<?xml version="1.0" encoding="utf-8"?>
<!-- Generator: Adobe Illustrator 24.1.1, SVG Export Plug-In . SVG Version: 6.00 Build 0)  -->
<svg version="1.1" id="Layer_1" xmlns="http://www.w3.org/2000/svg" xmlns:xlink="http://www.w3.org/1999/xlink" x="0px" y="0px"
	 viewBox="0 0 512 512" style="enable-background:new 0 0 512 512;" xml:space="preserve">
<style type="text/css">
	.st0{fill:#333333;}
</style>
<g id="XMLID_8_">
	<circle id="XMLID_10_" class="st0" cx="64" cy="179.9" r="64"/>
	<circle id="XMLID_11_" class="st0" cx="179.7" cy="77.3" r="64"/>
	<circle id="XMLID_12_" class="st0" cx="333.2" cy="77.3" r="64"/>
	
		<ellipse id="XMLID_13_" transform="matrix(0.7071 -0.7071 0.7071 0.7071 4.0096 369.4745)" class="st0" cx="448" cy="179.9" rx="64" ry="64"/>
	<path id="XMLID_14_" class="st0" d="M392.8,316.7c-21.9-26.3-41.2-48.2-63.1-74.5c-11.4-14-27.2-28.1-44.7-34.2
		c-2.6-0.9-5.3-1.8-8.8-2.6c-6.1-0.9-13.2-0.9-20.2-0.9s-13.2,0-20.2,0.9c-2.6,0.9-5.3,0.9-8.8,2.6c-17.5,6.1-32.4,20.2-44.7,33.3
		c-21.9,26.3-41.2,48.2-63.1,74.5c-33.3,33.3-74.5,71-66.6,122.7c7,26.3,26.3,51.7,59.6,59.6c18.4,3.5,78-11.4,142-11.4h4.4
		c63.1,0,122.7,14.9,142,11.4c33.3-7,52.6-33.3,59.6-59.6C467.3,387.7,426.1,350.9,392.8,316.7z"/>
</g>
</svg>
