<?xml version="1.0" encoding="iso-8859-1"?>
<!-- Uploaded to: SVG Repo, www.svgrepo.com, Generator: SVG Repo Mixer Tools -->
<svg height="800px" width="800px" version="1.1" id="Layer_1" xmlns="http://www.w3.org/2000/svg" xmlns:xlink="http://www.w3.org/1999/xlink" 
	 viewBox="0 0 512 512" xml:space="preserve">
<polygon style="fill:#AE5C26;" points="360,96 152,96 104,96 152,136 152,176 360,176 360,136 408,96 "/>
<circle style="fill:#3689C9;" cx="256" cy="104" r="104"/>
<g>
	<path style="fill:#1B6FAB;" d="M240,100l-12,14.4c-4.8,5.6-12.8,7.2-19.2,4c0.8,2.4,2.4,4,4,5.6c6.4,5.6,16.8,4.8,22.4-2.4l4-4.8
		V100H240z"/>
	<path style="fill:#1B6FAB;" d="M316,101.6l-40-48c-0.8-1.6-2.4-2.4-4-3.2l36,43.2c5.6,6.4,4.8,16.8-2.4,22.4
		c-5.6,4.8-12.8,4.8-18.4,1.6l4,4.8c5.6,6.4,16,8,22.4,2.4C320.8,118.4,321.6,108.8,316,101.6z"/>
	<path style="fill:#1B6FAB;" d="M272,100v52c0,8.8-7.2,16-16,16c-2.4,0-4.8-0.8-6.4-1.6c2.4,5.6,8,9.6,14.4,9.6c8.8,0,16-7.2,16-16
		v-50.4L272,100z"/>
</g>
<path style="fill:#FFFFFF;" d="M205.6,116c6.4,5.6,16.8,4.8,22.4-2.4l12-14.4V152c0,8.8,7.2,16,16,16c8.8,0,16-7.2,16-16v-52
	l12,14.4c5.6,6.4,16,8,22.4,2.4s8-16,2.4-22.4l-40-48c-3.2-4-8-6.4-12.8-6.4c-4.8,0-9.6,2.4-12,5.6l-40,48
	C198.4,100.8,199.2,110.4,205.6,116z"/>
<path style="fill:#DDDFE1;" d="M231.2,109.6c-5.6-1.6-11.2-0.8-16.8,1.6c-4,1.6-8.8,1.6-12.8,0c1.6,3.2,4,6.4,7.2,8
	c7.2,3.2,15.2,0.8,20-4.8l3.2-3.2L231.2,109.6z"/>
<path style="fill:#1B6FAB;" d="M344,88c-8.8,0-16,7.2-16,16c0,40-32,72-72,72c-8.8,0-16,7.2-16,16s7.2,16,16,16
	c57.6,0,104-46.4,104-104C360,95.2,352.8,88,344,88z"/>
<path style="fill:#4C9FD7;" d="M168,120c8.8,0,16-7.2,16-16c0-40,32-72,72-72c8.8,0,16-7.2,16-16s-7.2-16-16-16
	c-57.6,0-104,46.4-104,104C152,112.8,159.2,120,168,120z"/>
<path style="fill:#DDDFE1;" d="M272,100c-4.8,0-8,3.2-8,8v52c0,2.4-0.8,4.8-1.6,6.4c5.6-2.4,9.6-8,9.6-14.4V100L272,100z"/>
<polygon style="fill:#F7B84E;" points="152,136 104,96 104,162.4 "/>
<polygon style="fill:#BD6428;" points="152,176 80,176 152,136 "/>
<polygon style="fill:#F7B84E;" points="360,136 408,96 408,162.4 "/>
<polygon style="fill:#BD6428;" points="360,176 432,176 360,136 "/>
<path style="fill:#FFCB5B;" d="M80,176v320c0,8,7.2,16,16,16h320c8.8,0,16-8,16-16V176H80z"/>
<g>
	<path style="fill:#F7B84E;" d="M209.6,342.4c-11.2-12-17.6-28.8-17.6-46.4v-40c0-4.8-3.2-8-8-8v40
		C184,309.6,193.6,329.6,209.6,342.4z"/>
	<path style="fill:#F7B84E;" d="M344,248v40c0,48.8-39.2,88-88,88c-22.4,0-42.4-8-58.4-21.6c16,18.4,40,29.6,66.4,29.6
		c48.8,0,88-39.2,88-88v-40C352,251.2,348.8,248,344,248z"/>
</g>
<path style="fill:#FFE278;" d="M80,176v16v80l0,0c8.8,0,16-7.2,16-16v-48c0-8.8,7.2-16,16-16h248c8.8,0,16-7.2,16-16l0,0H80z"/>
<g>
	<circle style="fill:#AE5C26;" cx="176" cy="240" r="16"/>
	<circle style="fill:#AE5C26;" cx="336" cy="240" r="16"/>
</g>
<path style="fill:#FFFFFF;" d="M336,240c-4.8,0-8,3.2-8,8v40c0,40-32,72-72,72s-72-32-72-72v-40c0-4.8-3.2-8-8-8s-8,3.2-8,8v40
	c0,48.8,39.2,88,88,88s88-39.2,88-88v-40C344,243.2,340.8,240,336,240z"/>
<path style="fill:#F7B84E;" d="M432,288c-8.8,0-16,7.2-16,16v88.8c0,8.8-7.2,15.2-16,15.2s-16,7.2-16,16v56c0,8.8-7.2,16-16,16H128
	c-8.8,0-16,7.2-16,16h272h16h16c8.8,0,16-7.2,16-16v-72v-96V288z"/>
</svg>